<?xml version="1.0" encoding="UTF-8"?>
<svg id="Capa_1" data-name="Capa 1" xmlns="http://www.w3.org/2000/svg" viewBox="0 0 438.36 800">
  <defs>
    <style>
      .cls-1 {
        fill: #3f3f3f;
      }
    </style>
  </defs>
  <path class="cls-1" d="M438.36,580.82c0,106.03-75.3,194.48-175.34,214.78-14.16,2.89-28.82,4.4-43.84,4.4s-29.67-1.51-43.84-4.4v-338.82l71.28,17.91c3.02.78,6.09,1.72,9.11,2.79,2.46.86,4.88,1.83,7.28,2.87v224.49c51.08-18.05,87.67-66.76,87.67-124.02s-36.59-105.97-87.67-124.02c-3.59-1.27-7.25-2.39-10.97-3.35l-76.7-19.28-7-1.75-4.94-1.24c-24.67-6.47-47.63-17.13-68.1-31.18-3.37-2.3-6.67-4.71-9.9-7.21C33.45,352.72,0,289.85,0,219.18,0,98.13,98.13,0,219.18,0c106.03,0,194.48,75.3,214.78,175.34,2.89,14.16,4.4,28.82,4.4,43.84s-1.51,29.67-4.4,43.84h-170.95v80.21l-71.29-17.91c-3.02-.79-6.08-1.72-9.1-2.79-2.46-.86-4.88-1.84-7.28-2.89v-144.29h167.85c-18.05-51.08-66.76-87.67-124.02-87.67-72.63,0-131.51,58.87-131.51,131.51,0,57.25,36.59,105.97,87.67,124.02,3.59,1.27,7.25,2.39,10.97,3.35l76.7,19.28,7.37,1.84,4.58,1.16c24.67,6.47,47.63,17.13,68.1,31.18,3.37,2.3,6.67,4.71,9.9,7.21,51.95,40.07,85.39,102.94,85.39,173.61Z"/>
  <path class="cls-1" d="M87.67,580.82v-146.06L0,412.74v168.08c0,98.14,64.5,181.2,153.42,209.12v-95.23c-39.31-22.74-65.75-65.22-65.75-113.89Z"/>
</svg>